<?xml version="1.0" encoding="UTF-8"?>
<svg width="273px" height="273px" viewBox="0 0 273 273" version="1.1" xmlns="http://www.w3.org/2000/svg" xmlns:xlink="http://www.w3.org/1999/xlink">
    <!-- Generator: Sketch 53.2 (72643) - https://sketchapp.com -->
    <title>Circles</title>
    <desc>Created with Sketch.</desc>
    <defs>
        <polygon id="path-1" points="1.80833126e-12 -1.96906521e-12 320 -1.96906521e-12 320 320 1.93267624e-12 320"></polygon>
    </defs>
    <g id="2019_0318" stroke="none" stroke-width="1" fill="none" fill-rule="evenodd">
        <g id="6.Kaggle_Homepage" transform="translate(-1144.000000, -400.000000)">
            <g id="Circles" transform="translate(1120.000000, 376.000000)">
                <g transform="translate(160.000000, 160.000000) scale(-1, -1) rotate(-360.000000) translate(-160.000000, -160.000000) ">
                    <mask id="mask-2" fill="white">
                        <use xlink:href="#path-1"></use>
                    </mask>
                    <g id="Rectangle" fill-rule="nonzero"></g>
                    <path d="M159.20398,183.160112 C172.462652,183.160112 183.210929,172.414816 183.210929,159.159821 C183.210929,145.904827 172.462652,135.159531 159.20398,135.159531 C145.945308,135.159531 135.197031,145.904827 135.197031,159.159821 C135.197031,172.414816 145.945308,183.160112 159.20398,183.160112 Z" id="Oval" stroke="#DEDFE0" stroke-width="2" stroke-dasharray="3" fill-rule="nonzero" mask="url(#mask-2)"></path>
                    <path d="M159.20398,205.897229 C185.023499,205.897229 205.954355,184.972179 205.954355,159.159821 C205.954355,133.347464 185.023499,112.422413 159.20398,112.422413 C133.384461,112.422413 112.453605,133.347464 112.453605,159.159821 C112.453605,184.972179 133.384461,205.897229 159.20398,205.897229 Z" id="Oval" stroke="#DEDFE0" stroke-width="2" stroke-dasharray="3" fill-rule="nonzero" mask="url(#mask-2)"></path>
                    <path d="M159.20398,231.160693 C198.979996,231.160693 231.224828,198.924805 231.224828,159.159821 C231.224828,119.394838 198.979996,87.1589498 159.20398,87.1589498 C119.427964,87.1589498 87.183132,119.394838 87.183132,159.159821 C87.183132,198.924805 119.427964,231.160693 159.20398,231.160693 Z" id="Oval" stroke="#DEDFE0" stroke-width="2" stroke-dasharray="3.099999904632568" fill-rule="nonzero" mask="url(#mask-2)"></path>
                    <path d="M159.20398,252.634637 C210.843019,252.634637 252.70473,210.784537 252.70473,159.159821 C252.70473,107.535106 210.843019,65.6850056 159.20398,65.6850056 C107.564942,65.6850056 65.7032299,107.535106 65.7032299,159.159821 C65.7032299,210.784537 107.564942,252.634637 159.20398,252.634637 Z" id="Oval" stroke="#DEDFE0" stroke-width="2" stroke-dasharray="3.599999904632568,3" fill-rule="nonzero" mask="url(#mask-2)"></path>
                    <path d="M159.20398,274.108581 C222.706041,274.108581 274.184632,222.644268 274.184632,159.159821 C274.184632,95.6753743 222.706041,44.2110615 159.20398,44.2110615 C95.7019193,44.2110615 44.2233278,95.6753743 44.2233278,159.159821 C44.2233278,222.644268 95.7019193,274.108581 159.20398,274.108581 Z" id="Oval" stroke="#DEDFE0" stroke-width="2" stroke-dasharray="3.200000047683716" fill-rule="nonzero" mask="url(#mask-2)"></path>
                    <path d="M159.20398,294.319352 C233.871238,294.319352 294.401011,233.806369 294.401011,159.159821 C294.401011,84.5132737 233.871238,24.0002905 159.20398,24.0002905 C84.5367218,24.0002905 24.0069494,84.5132737 24.0069494,159.159821 C24.0069494,233.806369 84.5367218,294.319352 159.20398,294.319352 Z" id="Oval" stroke="#DEDFE0" stroke-width="2" stroke-dasharray="3.099999904632568" fill-rule="nonzero" mask="url(#mask-2)"></path>
                </g>
            </g>
        </g>
    </g>
</svg>