<svg width="32" height="48" fill="none" xmlns="http://www.w3.org/2000/svg"><path d="M13.418 39.522l8.769-.044s-.668-2.67-.4-4.718c.088-.757.578-1.47 1.245-1.87 8.59-5.386 6.499-11.483 6.499-11.483s-.935-7.79-11.973-8.502c-11.751-.757-10.994 9.703-10.994 9.703s-.49 5.831 5.608 9.748c.89.579 1.424 1.513 1.558 2.537.267 2.626-.312 4.63-.312 4.63z" fill="#FFF3D6"/><path d="M22.186 39.477v3.16c0 1.158-.756 2.137-1.69 2.137l-5.342.045c-.935 0-1.691-.935-1.736-2.137v-3.16l8.768-.044z" fill="#79A6FF"/><path d="M19.917 44.775l-.579 1.424h-3.294l-.756-1.424h4.629z" fill="#3E7EFF"/><path d="M22.142 25.546c1.335-2.493-1.959-3.694-3.516-2.003-.267.311-.4.712-.4 1.157v1.87c-.446-.09-.98-.178-1.38-.312 0-.712 0-1.469-.223-2.047-.935-2.716-4.407-.58-2.36 1.335.49.445 1.202.801 1.96 1.024.044 4.317.133 8.59.177 12.908h.579a470.29 470.29 0 0 1-.09-7.923c0-1.38-.044-2.76-.044-4.095v-.668c.445.09.89.178 1.336.223l.089 12.463h.578l-.089-12.419h.356c1.158-.044 2.448-.445 3.027-1.513zm-5.92.534c-.846-.267-2.047-.846-2.136-1.691-.045-.223.044-.401.222-.535 1.469-1.335 1.914 1.069 1.914 1.336v.89zm5.386-.623c-.668 1.024-1.736 1.29-2.849 1.202v-1.914c0-.356.134-.713.4-.935.446-.445 1.247-.935 2.226-.445.623.4.712 1.38.223 2.092zm-15.356-14.6a.484.484 0 0 0 0-.667l-4.45-4.406a.484.484 0 0 0-.668 0 .484.484 0 0 0 0 .667l4.45 4.407c.223.178.49.178.668 0zm19.54-.133a.484.484 0 0 1 0-.668l4.407-4.45a.484.484 0 0 1 .667 0 .484.484 0 0 1 0 .667l-4.406 4.451a.484.484 0 0 1-.668 0zm-8.368-1.558a.446.446 0 0 0 .445-.445l-.044-6.276a.446.446 0 0 0-.89 0l.044 6.276c-.044.223.178.445.445.445z" fill="#FFB50D"/></svg>